<svg id="Ñëîé_1" data-name="Ñëîé 1" xmlns="http://www.w3.org/2000/svg" viewBox="0 0 700 700"><defs><style>.cls-1{fill:#fff;}</style></defs><title>clsoed appiontments</title><path class="cls-1" d="M626.63,80.48H582.79v23a39.49,39.49,0,0,1-39.45,39.45H493.13a39.5,39.5,0,0,1-39.45-39.45v-23H250.34v23a39.5,39.5,0,0,1-39.45,39.45H160.68a39.49,39.49,0,0,1-39.45-39.45v-23H77.39c-22.94,0-41.59,17.18-41.59,38.31V641c0,21.12,18.65,38.3,41.59,38.3H626.63c22.94,0,41.59-17.18,41.59-38.3V118.79C668.22,97.66,649.57,80.48,626.63,80.48Zm-3.92,555.46H81.31V211.81h541.4Z"/><rect class="cls-1" x="140.95" y="20.48" width="89.66" height="102.74" rx="19.73"/><rect class="cls-1" x="473.41" y="20.48" width="89.66" height="102.74" rx="19.73"/><path class="cls-1" d="M617.24,72.65H573.4v23A39.49,39.49,0,0,1,534,135.11H483.74a39.49,39.49,0,0,1-39.45-39.45v-23H241v23a39.49,39.49,0,0,1-39.45,39.45H151.29a39.49,39.49,0,0,1-39.45-39.45v-23H68c-22.94,0-41.59,17.19-41.59,38.31V633.17c0,21.12,18.65,38.31,41.59,38.31H617.24c22.93,0,41.59-17.19,41.59-38.31V111C658.83,89.84,640.17,72.65,617.24,72.65Zm-3.92,555.46H71.92V204h541.4Z"/><rect class="cls-1" x="131.56" y="12.65" width="89.66" height="102.74" rx="19.73"/><rect class="cls-1" x="464.01" y="12.65" width="89.66" height="102.74" rx="19.73"/><path class="cls-1" d="M519.42,380.58a167.52,167.52,0,0,0-50.83-85.46c-22-20.05-47.51-33-76.38-39.64-6.89-1.58-14-1.12-20.9-2.32H340a137.75,137.75,0,0,0-51.21,12c-43.06,19-73.12,50.44-90.66,94A131,131,0,0,0,189,399.72V440c1.2,5.43.57,11.06,1.8,16.48,4.06,17.94,10.45,35,20.15,50.64,19.61,31.66,46.29,55,81,69.18a135.12,135.12,0,0,0,43.64,10.26h40.28c2.44-1.32,5.1-.43,7.65-.7,17.71-1.88,34-8.07,49.6-16.25,42.33-22.13,70-56.32,84.19-101.78,3.29-10.56,4.23-21.41,5.12-32.3V404.19C521.1,396.36,521.34,388.38,519.42,380.58Zm-82.53,108.5c-2.25,7.77-8.13,11.92-15.42,13.36-6.35,1.25-12.12-1.47-16.76-6.11-15.28-15.28-30.62-30.51-45.79-45.91-2.49-2.53-3.81-2.81-6.47-.09-14.87,15.17-29.81,30.28-45,45.08-10.31,10-19.39,9.5-27.88,1.84-9.11-8.21-9.41-19,.45-29.06q22.13-22.54,44.7-44.64c2.85-2.79,3.33-4.2.15-7.29-15.09-14.68-29.91-29.64-44.75-44.59-5.48-5.52-8.79-11.66-6.24-20,2.68-8.74,8.82-13.13,17.2-14,5.31-.56,10.37,1.51,14.48,5.67,16.36,16.58,32.89,33,49.57,49.67,16.47-16.47,32.66-32.69,48.89-48.88,11-11,26.9-7.16,32.38,5.81,3.06,7.26.88,15.82-5.24,21.91-16.23,16.14-32.4,32.34-48.68,48.61,16.48,16.45,32.78,32.83,49.21,49.07C437.3,475.11,439.09,481.52,436.89,489.08Z"/></svg>