<svg id="Ñëîé_1" data-name="Ñëîé 1" xmlns="http://www.w3.org/2000/svg" viewBox="0 0 700 700"><defs><style>.cls-1{fill:#fff;}.cls-2{font-size:72px;fill:#07324e;font-family:Montserrat-Bold, Montserrat;font-weight:700;}.cls-3{letter-spacing:-0.01em;}</style></defs><title>open_appiontments</title><path class="cls-1" d="M623.68,78.91H579.84v23a39.5,39.5,0,0,1-39.45,39.46H490.17a39.5,39.5,0,0,1-39.45-39.46v-23H247.38v23a39.49,39.49,0,0,1-39.45,39.46H157.72a39.5,39.5,0,0,1-39.45-39.46v-23H74.43c-22.93,0-41.59,17.19-41.59,38.31V639.43c0,21.12,18.66,38.31,41.59,38.31H623.68c22.93,0,41.59-17.19,41.59-38.31V117.22C665.27,96.1,646.61,78.91,623.68,78.91Zm-3.93,555.46H78.35V210.24h541.4Z"/><rect class="cls-1" x="138" y="18.91" width="89.66" height="102.74" rx="19.73"/><rect class="cls-1" x="175.13" y="364.87" width="366.26" height="131.48" rx="36.2"/><rect class="cls-1" x="470.45" y="18.91" width="89.66" height="102.74" rx="19.73"/><text class="cls-2" transform="translate(237.74 460.55)">O<tspan class="cls-3" x="60.77" y="0">P</tspan><tspan x="112.75" y="0">EN</tspan></text></svg>