<svg id="Ñëîé_1" data-name="Ñëîé 1" xmlns="http://www.w3.org/2000/svg" viewBox="0 0 700 700"><defs><style>.cls-1{fill:#fff;}</style></defs><title>service_appiontments</title><rect class="cls-1" x="473.41" y="18.91" width="89.66" height="102.74" rx="19.73"/><path class="cls-1" d="M626.63,78.91H582.79v23a39.49,39.49,0,0,1-39.45,39.46H493.13a39.5,39.5,0,0,1-39.45-39.46v-23H250.34v23a39.5,39.5,0,0,1-39.45,39.46H160.68a39.49,39.49,0,0,1-39.45-39.46v-23H77.39c-22.94,0-41.59,17.19-41.59,38.31V639.43c0,21.12,18.65,38.31,41.59,38.31H626.63c22.94,0,41.59-17.19,41.59-38.31V117.22C668.22,96.1,649.57,78.91,626.63,78.91Zm-3.92,555.46H81.31V210.24h541.4Z"/><rect class="cls-1" x="140.95" y="18.91" width="89.66" height="102.74" rx="19.73"/><circle class="cls-1" cx="354.36" cy="340.96" r="51.18" transform="translate(-137.3 350.44) rotate(-45)"/><path class="cls-1" d="M273.8,483.35v32.86H434.92V483.35a80.56,80.56,0,0,0-161.12,0Z"/></svg>