<svg id="Ñëîé_1" data-name="Ñëîé 1" xmlns="http://www.w3.org/2000/svg" viewBox="0 0 700 700"><defs><style>.cls-1{fill:#fff;}</style></defs><title>unactioned_icon</title><path class="cls-1" d="M632.89,78.91H589.05v23a39.49,39.49,0,0,1-39.45,39.46H499.39a39.5,39.5,0,0,1-39.45-39.46v-23H256.6v23a39.5,39.5,0,0,1-39.45,39.46H166.94a39.5,39.5,0,0,1-39.45-39.46v-23H83.65c-22.94,0-41.59,17.19-41.59,38.31V639.43c0,21.12,18.65,38.31,41.59,38.31H632.89c22.94,0,41.59-17.19,41.59-38.31V117.22C674.48,96.1,655.83,78.91,632.89,78.91ZM629,634.37H87.57V210.24H629Z"/><rect class="cls-1" x="147.21" y="18.91" width="89.66" height="102.74" rx="19.73"/><rect class="cls-1" x="479.67" y="18.91" width="89.66" height="102.74" rx="19.73"/><path class="cls-1" d="M515.17,411.34v12.58a27.37,27.37,0,0,0-.68,3.66,147.85,147.85,0,0,1-5.64,33.62A160.3,160.3,0,0,1,371.64,577.29c-3.73.41-7.44.88-11.16,1.32H347.9c-1.11-.23-2.22-.51-3.34-.68-9.9-1.51-20-2.18-29.67-4.61-87.29-22-140-111.26-115.43-198.79C223.25,289.85,307.94,241,393.53,261.82c64.24,15.63,114.11,72.87,120.3,138C514.2,403.7,514.72,407.52,515.17,411.34Zm-264-75.76c-39.46,46.79-42.38,128,14.18,179.56,55.54,50.63,131.89,39.73,170.79,5.42Zm21-21,185,185c35.17-40.3,44.6-117-6.35-171.75C398.56,271.66,317.84,275.87,272.19,314.58Z"/></svg>